<svg t="1746124497547" class="icon" viewBox="0 0 1024 1024" version="1.1" xmlns="http://www.w3.org/2000/svg" p-id="3521" width="68" height="68"><path d="M995.556 8.533c-19.172-35.442-210.603 48.014-284.445 105.245 0 0-113.778-28.388-199.111-28.388-85.333 0-199.111 28.388-199.111 28.388C239.047 56.548 47.616-26.909 28.444 8.533-28.443 113.778 56.89 369.778 56.89 369.778c-25.543 51.086-36.722 94.663-46.165 170.296 10.04-2.759 21.617-4.465 35.982-4.465 142.279 0 223.488 231.68 209.123 424.533C356.722 1006.96 468.139 1024 512 1024c44.06 0 156.359-17.21 257.65-64.569-14.137-192.711 67.043-423.822 209.152-423.822 13.653 0 24.688 1.65 34.418 4.124-9.42-75.434-20.594-118.955-46.109-169.955 0 0 85.329-256 28.445-361.245z" fill="#FFCC4D" p-id="3522"></path><path d="M512 426.667c85.333 0 85.333 14.222 85.333 42.666 0 28.445-42.666 85.334-85.333 85.334s-85.333-56.889-85.333-85.334c0-28.444-0.029-42.666 85.333-42.666z" fill="#E75A70" p-id="3523"></path><path d="M56.889 85.333c12.715-38.172 160.427 28.445 188.871 56.889 0 0-131.982 85.334-160.427 170.667 0 0-56.888-142.222-28.444-227.556z m910.222 0c-12.714-38.172-160.426 28.445-188.871 56.889 0 0 131.982 85.334 160.427 170.667 0 0 56.889-142.222 28.444-227.556z" fill="#F18F26" p-id="3524"></path><path d="M140.345 159.374c0-40.22 172.544 39.737 144.1 68.181C256 256 227.556 273.152 199.111 301.596c-28.444 28.445-58.766-113.777-58.766-142.222z m743.31 0c0-40.22-172.544 39.737-144.099 68.181C768 256 796.444 273.152 824.889 301.596c28.444 28.445 58.766-113.777 58.766-142.222z" fill="#FFCC4D" p-id="3525"></path><path d="M313.998 611.612c-51.228-3.982-96.398-0.455-135.452 6.656 5.632 8.306 10.979 17.067 16.071 26.283 34.361-5.49 73.557-7.936 117.191-4.608 7.964 1.166 14.677-5.234 15.275-13.084 0.568-7.823-5.263-14.678-13.085-15.247z m-37.575-60.956C162.588 515.1 66.048 528.697 27.762 536.775c5.86-0.683 11.975-1.195 18.944-1.195 25.287 0 48.64 7.396 69.888 20.537 42.154-0.597 94.606 3.982 151.353 21.732 1.393 0.455 2.844 0.625 4.238 0.625 6.059 0 11.662-3.896 13.568-9.983 2.361-7.481-1.821-15.474-9.33-17.835z m570.397 67.868c-39.368-7.281-84.992-10.922-136.79-6.912-7.822 0.569-13.682 7.424-13.084 15.247 0.597 7.822 7.31 14.25 15.274 13.084 44.203-3.357 83.911-0.853 118.614 4.807 5.034-9.187 10.354-17.948 15.986-26.226z m62.094-62.407c21.248-13.141 44.601-20.537 69.916-20.537 6.144 0 11.463 0.512 16.754 1.053-38.713-8.079-134.798-21.334-247.979 14.023-7.509 2.361-11.69 10.325-9.329 17.835 1.905 6.087 7.509 9.983 13.567 9.983 1.394 0 2.845-0.199 4.239-0.625 57.401-17.977 110.45-22.471 152.832-21.732z" fill="#FEE7B8" p-id="3526"></path><path d="M512 597.333c-62.834 0-113.778 50.944-113.778 113.778v170.667c0 62.834 50.944 113.778 113.778 113.778s113.778-50.944 113.778-113.778V711.111c0-62.834-50.944-113.778-113.778-113.778z" fill="#292F33" p-id="3527"></path><path d="M208.981 303.36c-26.908 90.339 3.044 179.001 66.902 198.03 63.886 19.058 137.5-38.741 164.38-129.081 26.937-90.311-3.015-179.001-66.844-198.03-63.858-19.029-137.501 38.798-164.438 129.081z m606.009 0c26.909 90.339-3.043 179.001-66.901 198.03-63.886 19.058-137.501-38.741-164.381-129.081-26.908-90.311 3.044-179.001 66.873-198.03 63.858-19.029 137.472 38.798 164.409 129.081z" fill="#F5F8FA" p-id="3528"></path><path d="M1016.97 545.65c-8.93-3.328-19.651-5.206-32.906-5.206-132.011 0-200.96 284.502-167.054 483.556h183.75c-54.214-200.391 47.1-400.754 16.21-478.35z m-977.034-5.206c-13.198 0-23.893 1.878-32.796 5.206l-0.029 0.398C-23.666 624.071 77.426 825.059 23.268 1024h183.751c33.849-197.973-35.129-483.556-167.083-483.556z" fill="#FCAB40" p-id="3529"></path></svg>