<?xml version="1.0" standalone="no"?><!DOCTYPE svg PUBLIC "-//W3C//DTD SVG 1.1//EN" "http://www.w3.org/Graphics/SVG/1.1/DTD/svg11.dtd"><svg t="1717903244441" class="icon" viewBox="0 0 1024 1024" version="1.1" xmlns="http://www.w3.org/2000/svg" p-id="10141" xmlns:xlink="http://www.w3.org/1999/xlink" width="32" height="32"><path d="M896 1024c-35.34848 0-64-28.65152-64-64v-512c0-35.34848 28.65152-64 64-64s64 28.65152 64 64v512c0 35.34848-28.65152 64-64 64z m-256 0c-35.34848 0-64-28.65152-64-64v-896C576 28.65152 604.65152 0 640 0s64 28.65152 64 64v896c0 35.34848-28.65152 64-64 64z m-256 0c-35.34848 0-64-28.65152-64-64v-256c0-35.34848 28.65152-64 64-64s64 28.65152 64 64v256c0 35.34848-28.65152 64-64 64z m-256 0c-35.34848 0-64-28.65152-64-64v-640C64 284.65152 92.65152 256 128 256s64 28.65152 64 64v640c0 35.34848-28.65152 64-64 64z" fill="#2c2c2c" p-id="10142"></path></svg>